<mxfile host="app.diagrams.net" modified="2024-03-26T19:37:08.794Z" agent="Mozilla/5.0 (X11; Linux x86_64) AppleWebKit/537.36 (KHTML, like Gecko) Chrome/121.0.0.0 Safari/537.36" etag="BFsAYTOItAD_JcZuLjkk" version="24.1.0" type="github">
  <diagram name="Page-1" id="YvBcVxd8uTftelk4yNp9">
    <mxGraphModel dx="2002" dy="1119" grid="1" gridSize="10" guides="1" tooltips="1" connect="1" arrows="1" fold="1" page="1" pageScale="1" pageWidth="850" pageHeight="1100" math="0" shadow="0">
      <root>
        <mxCell id="0" />
        <mxCell id="1" parent="0" />
        <mxCell id="t6l8mQwRBDLDZrELjgOa-28" value="" style="group" vertex="1" connectable="0" parent="1">
          <mxGeometry x="600" y="40" width="190" height="150" as="geometry" />
        </mxCell>
        <mxCell id="t6l8mQwRBDLDZrELjgOa-29" value="" style="rounded=0;whiteSpace=wrap;html=1;" vertex="1" parent="t6l8mQwRBDLDZrELjgOa-28">
          <mxGeometry width="190" height="150" as="geometry" />
        </mxCell>
        <mxCell id="t6l8mQwRBDLDZrELjgOa-30" value="oTHEA redemption Manager" style="text;html=1;align=center;verticalAlign=middle;whiteSpace=wrap;rounded=0;" vertex="1" parent="t6l8mQwRBDLDZrELjgOa-28">
          <mxGeometry width="190" height="30" as="geometry" />
        </mxCell>
        <mxCell id="t6l8mQwRBDLDZrELjgOa-32" value="" style="group" vertex="1" connectable="0" parent="1">
          <mxGeometry x="120" y="240" width="190" height="150" as="geometry" />
        </mxCell>
        <mxCell id="t6l8mQwRBDLDZrELjgOa-18" value="" style="group" vertex="1" connectable="0" parent="t6l8mQwRBDLDZrELjgOa-32">
          <mxGeometry width="190" height="150" as="geometry" />
        </mxCell>
        <mxCell id="t6l8mQwRBDLDZrELjgOa-16" value="" style="rounded=0;whiteSpace=wrap;html=1;" vertex="1" parent="t6l8mQwRBDLDZrELjgOa-18">
          <mxGeometry width="190" height="150" as="geometry" />
        </mxCell>
        <mxCell id="t6l8mQwRBDLDZrELjgOa-17" value="THEA token" style="text;html=1;align=center;verticalAlign=middle;whiteSpace=wrap;rounded=0;" vertex="1" parent="t6l8mQwRBDLDZrELjgOa-18">
          <mxGeometry width="190" height="30" as="geometry" />
        </mxCell>
        <mxCell id="t6l8mQwRBDLDZrELjgOa-19" value="" style="group" vertex="1" connectable="0" parent="t6l8mQwRBDLDZrELjgOa-32">
          <mxGeometry x="10" y="41" width="170" height="100" as="geometry" />
        </mxCell>
        <mxCell id="t6l8mQwRBDLDZrELjgOa-20" value="&lt;span style=&quot;color: rgba(0, 0, 0, 0); font-family: monospace; font-size: 0px; text-align: start; text-wrap: nowrap;&quot;&gt;%3CmxGraphModel%3E%3Croot%3E%3CmxCell%20id%3D%220%22%2F%3E%3CmxCell%20id%3D%221%22%20parent%3D%220%22%2F%3E%3CmxCell%20id%3D%222%22%20value%3D%22%22%20style%3D%22group%22%20vertex%3D%221%22%20connectable%3D%220%22%20parent%3D%221%22%3E%3CmxGeometry%20x%3D%22120%22%20y%3D%22240%22%20width%3D%22190%22%20height%3D%22150%22%20as%3D%22geometry%22%2F%3E%3C%2FmxCell%3E%3CmxCell%20id%3D%223%22%20value%3D%22%22%20style%3D%22rounded%3D0%3BwhiteSpace%3Dwrap%3Bhtml%3D1%3B%22%20vertex%3D%221%22%20parent%3D%222%22%3E%3CmxGeometry%20width%3D%22190%22%20height%3D%22150%22%20as%3D%22geometry%22%2F%3E%3C%2FmxCell%3E%3CmxCell%20id%3D%224%22%20value%3D%22THEA%20token%22%20style%3D%22text%3Bhtml%3D1%3Balign%3Dcenter%3BverticalAlign%3Dmiddle%3BwhiteSpace%3Dwrap%3Brounded%3D0%3B%22%20vertex%3D%221%22%20parent%3D%222%22%3E%3CmxGeometry%20width%3D%22190%22%20height%3D%2230%22%20as%3D%22geometry%22%2F%3E%3C%2FmxCell%3E%3CmxCell%20id%3D%225%22%20value%3D%22%22%20style%3D%22group%22%20vertex%3D%221%22%20connectable%3D%220%22%20parent%3D%222%22%3E%3CmxGeometry%20x%3D%2210%22%20y%3D%2250%22%20width%3D%22170%22%20height%3D%22100%22%20as%3D%22geometry%22%2F%3E%3C%2FmxCell%3E%3CmxCell%20id%3D%226%22%20value%3D%22%22%20style%3D%22rounded%3D0%3BwhiteSpace%3Dwrap%3Bhtml%3D1%3B%22%20vertex%3D%221%22%20parent%3D%225%22%3E%3CmxGeometry%20width%3D%22170%22%20height%3D%22100%22%20as%3D%22geometry%22%2F%3E%3C%2FmxCell%3E%3CmxCell%20id%3D%227%22%20value%3D%22ERC20%2C%20OFT%22%20style%3D%22text%3Bhtml%3D1%3Balign%3Dcenter%3BverticalAlign%3Dmiddle%3BwhiteSpace%3Dwrap%3Brounded%3D0%3B%22%20vertex%3D%221%22%20parent%3D%225%22%3E%3CmxGeometry%20width%3D%22170%22%20height%3D%2220%22%20as%3D%22geometry%22%2F%3E%3C%2FmxCell%3E%3C%2Froot%3E%3C%2FmxGraphModel%3E&lt;/span&gt;" style="rounded=0;whiteSpace=wrap;html=1;" vertex="1" parent="t6l8mQwRBDLDZrELjgOa-19">
          <mxGeometry width="170" height="100" as="geometry" />
        </mxCell>
        <mxCell id="t6l8mQwRBDLDZrELjgOa-21" value="ERC20, OFT" style="text;html=1;align=center;verticalAlign=middle;whiteSpace=wrap;rounded=0;" vertex="1" parent="t6l8mQwRBDLDZrELjgOa-19">
          <mxGeometry width="170" height="20" as="geometry" />
        </mxCell>
        <mxCell id="t6l8mQwRBDLDZrELjgOa-33" value="" style="group" vertex="1" connectable="0" parent="1">
          <mxGeometry x="440" y="230" width="190" height="150" as="geometry" />
        </mxCell>
        <mxCell id="t6l8mQwRBDLDZrELjgOa-22" value="" style="group" vertex="1" connectable="0" parent="t6l8mQwRBDLDZrELjgOa-33">
          <mxGeometry width="190" height="150" as="geometry" />
        </mxCell>
        <mxCell id="t6l8mQwRBDLDZrELjgOa-23" value="" style="rounded=0;whiteSpace=wrap;html=1;" vertex="1" parent="t6l8mQwRBDLDZrELjgOa-22">
          <mxGeometry width="190" height="150" as="geometry" />
        </mxCell>
        <mxCell id="t6l8mQwRBDLDZrELjgOa-24" value="oTHEA" style="text;html=1;align=center;verticalAlign=middle;whiteSpace=wrap;rounded=0;" vertex="1" parent="t6l8mQwRBDLDZrELjgOa-22">
          <mxGeometry width="190" height="30" as="geometry" />
        </mxCell>
        <mxCell id="t6l8mQwRBDLDZrELjgOa-25" value="" style="group" vertex="1" connectable="0" parent="t6l8mQwRBDLDZrELjgOa-33">
          <mxGeometry x="10" y="42" width="170" height="100" as="geometry" />
        </mxCell>
        <mxCell id="t6l8mQwRBDLDZrELjgOa-26" value="" style="rounded=0;whiteSpace=wrap;html=1;" vertex="1" parent="t6l8mQwRBDLDZrELjgOa-25">
          <mxGeometry width="170" height="100" as="geometry" />
        </mxCell>
        <mxCell id="t6l8mQwRBDLDZrELjgOa-27" value="ERC20" style="text;html=1;align=center;verticalAlign=middle;whiteSpace=wrap;rounded=0;" vertex="1" parent="t6l8mQwRBDLDZrELjgOa-25">
          <mxGeometry width="170" height="20" as="geometry" />
        </mxCell>
        <mxCell id="t6l8mQwRBDLDZrELjgOa-34" value="" style="group" vertex="1" connectable="0" parent="1">
          <mxGeometry x="700" y="120" width="190" height="110" as="geometry" />
        </mxCell>
        <mxCell id="t6l8mQwRBDLDZrELjgOa-35" value="" style="rounded=0;whiteSpace=wrap;html=1;" vertex="1" parent="t6l8mQwRBDLDZrELjgOa-34">
          <mxGeometry width="190" height="109.99999999999999" as="geometry" />
        </mxCell>
        <mxCell id="t6l8mQwRBDLDZrELjgOa-36" value="PriceFeed" style="text;html=1;align=center;verticalAlign=middle;whiteSpace=wrap;rounded=0;" vertex="1" parent="t6l8mQwRBDLDZrELjgOa-34">
          <mxGeometry width="190" height="22" as="geometry" />
        </mxCell>
      </root>
    </mxGraphModel>
  </diagram>
</mxfile>
